# xmcd CD database file
#
# Track frame offsets:
#	150
#	12857
#	32601
#	56606
#	74825
#	90851
#	109702
#	129124
#	146944
#	160729
#	181557
#	199303
#	219123
#	232013
#	245003
#
# Disc length: 3588 seconds
#
# Revision: 4
# Processed by: cddbd v1.5.2PL0 Copyright (c) Steve Scherf et al.
# Submitted via: CDex 1.51
#
DISCID=c80e020f
DTITLE=Alan Jackson - George Strait - Jimmy Buffett - Live At Texas Stadium
DYEAR=2007
DGENRE=Country
TTITLE0=George Strait - Honk If You Honky Tonk
TTITLE1=George Strait with Alan Jackson - Murder On Music Row
TTITLE2=George Strait - Milk Cow Blues
TTITLE3=George Strait - Cowboys Like Us
TTITLE4=George Strait with Jimmy Buffett - All My Ex's Live In Texas
TTITLE5=Jimmy Buffett with George Strait and Alan Jackson - Hey Good Lookin'
TTITLE6=Jimmy Buffett with George Strait - Sea Of Heartbreak
TTITLE7=Jimmy Buffett - North East Texas Woman
TTITLE8=Jimmy Buffett with Alan Jackson - Boats To Build
TTITLE9=Jimmy Buffett with Alan Jackson and George Strait - Margaritaville
TTITLE10=Alan Jackson with Jimmy Buffett - Five O'Clock Somewhere
TTITLE11=Alan Jackson with George Strait - Designated Drinker
TTITLE12=Alan Jackson - Texas Women
TTITLE13=Alan Jackson - Seven Bridges Road
TTITLE14=Alan Jackson - Where I Come From
EXTD=YEAR: 2007
EXTT0=
EXTT1=
EXTT2=
EXTT3=
EXTT4=
EXTT5=
EXTT6=
EXTT7=
EXTT8=
EXTT9=
EXTT10=
EXTT11=
EXTT12=
EXTT13=
EXTT14=
PLAYORDER=
